<svg xmlns="http://www.w3.org/2000/svg" width="511.978" height="512" viewBox="0 0 511.978 512">
  <path id="exit" d="M361.5,392v40a80.089,80.089,0,0,1-80,80H80.5a80.089,80.089,0,0,1-80-80V80a80.089,80.089,0,0,1,80-80h201a80.089,80.089,0,0,1,80,80v40a20,20,0,0,1-40,0V80a40.047,40.047,0,0,0-40-40H80.5a40.047,40.047,0,0,0-40,40V432a40.047,40.047,0,0,0,40,40h201a40.047,40.047,0,0,0,40-40V392a20,20,0,0,1,40,0ZM497.855,221.645,453.07,176.859a20,20,0,0,0-28.285,28.281L456.641,237H216.5a20,20,0,0,0,0,40H456.641l-31.855,31.859a20,20,0,1,0,28.285,28.281l44.785-44.785A50.055,50.055,0,0,0,497.855,221.645Zm0,0" transform="translate(-0.5)" fill="#fff"/>
</svg>
